<svg xmlns="http://www.w3.org/2000/svg" xmlns:xlink="http://www.w3.org/1999/xlink" id="Layer_1" x="0px" y="0px" viewBox="0 0 200 200" xml:space="preserve"><g>	<g>		<g>			<path fill="#334A5E" d="M146.28,135.05c-1.92-1.46-4.66-1.08-6.11,0.83c-0.28,0.37-0.57,0.73-0.86,1.09    c-4.38,5.36-10.27,9.7-17.54,12.94c-0.04,0.02-0.07,0.03-0.11,0.05c-11.48,5.48-24.9,6.23-37.78,2.12    c-11.31-3.68-20.51-10.81-27.35-21.19c-5.08-8.14-7.74-16.99-7.93-26.33c0-0.23,0-0.46-0.01-0.68h5.35c2.01,0,3.02-2.43,1.6-3.86    l-9.72-9.72c-0.88-0.88-2.31-0.88-3.2,0l-9.72,9.72c-1.42,1.42-0.42,3.86,1.6,3.86h5.36c0.07,11.26,3.19,21.92,9.3,31.68    c0.02,0.03,0.04,0.06,0.05,0.09c7.96,12.09,18.71,20.42,31.99,24.74c6.36,2.03,12.84,3.04,19.23,3.04    c8.68,0,17.17-1.86,24.94-5.56c9.09-4.05,16.41-9.67,21.76-16.7C148.58,139.25,148.2,136.51,146.28,135.05L146.28,135.05z     M146.28,135.05"></path>			<path fill="#334A5E" d="M166.06,102.98h-5.36c0-1.2-0.04-2.4-0.11-3.6c-0.56-9.43-3.36-18.71-8.12-26.85    c-4.64-7.93-11.14-14.82-18.8-19.9c-7.79-5.17-16.81-8.5-26.08-9.62c-10.3-1.25-20.78,0.17-30.3,4.09    c-9.34,3.84-17.64,10.04-24.02,17.92c-1.52,1.87-1.22,4.62,0.65,6.14c1.87,1.51,4.62,1.23,6.14-0.65c0.33-0.4,0.66-0.8,1-1.19    c5.31-6.18,12.05-11.06,19.56-14.15c8.14-3.35,17.11-4.56,25.94-3.49c7.93,0.96,15.63,3.8,22.29,8.23    c6.56,4.36,12.12,10.25,16.09,17.04c4.07,6.96,6.47,14.89,6.94,22.96c0.03,0.51,0.05,1.03,0.07,1.55    c0.01,0.51,0.02,1.02,0.02,1.53h-5.36c-2.01,0-3.02,2.43-1.6,3.86l9.72,9.72c0.88,0.88,2.31,0.88,3.2,0l9.72-9.72    C169.08,105.41,168.07,102.98,166.06,102.98L166.06,102.98z M166.06,102.98"></path>		</g>	</g>	<g>		<path fill="#0EB1AD" d="M122.98,104.23H68.03c-0.76,0-1.38-0.62-1.38-1.38c0-0.76,0.62-1.38,1.38-1.38h54.69   c0.09-0.02,0.18-0.03,0.27-0.03c4.5,0,8.17-3.66,8.17-8.17c0-4.5-3.67-8.17-8.17-8.17c-4.5,0-8.17,3.66-8.17,8.17   c0,0.76-0.61,1.38-1.38,1.38c-0.76,0-1.38-0.62-1.38-1.38c0-6.03,4.91-10.93,10.93-10.93c6.03,0,10.93,4.9,10.93,10.93   c0,5.93-4.75,10.77-10.64,10.93C123.18,104.22,123.08,104.23,122.98,104.23L122.98,104.23z M122.98,104.23"></path>		<path fill="#0EB1AD" d="M94.68,94.67H68.03c-0.76,0-1.38-0.62-1.38-1.38c0-0.76,0.62-1.38,1.38-1.38h26.38   c0.09-0.02,0.17-0.03,0.27-0.03c4.5,0,8.17-3.66,8.17-8.17c0-4.5-3.66-8.17-8.17-8.17c-4.5,0-8.17,3.66-8.17,8.17   c0,0.76-0.62,1.38-1.38,1.38c-0.76,0-1.38-0.62-1.38-1.38c0-6.03,4.9-10.93,10.93-10.93c6.03,0,10.93,4.9,10.93,10.93   c0,5.93-4.75,10.77-10.64,10.93C94.87,94.66,94.77,94.67,94.68,94.67L94.68,94.67z M94.68,94.67"></path>		<path fill="#0EB1AD" d="M111.59,133.21c-6.03,0-10.93-4.9-10.93-10.93c0-0.76,0.62-1.38,1.38-1.38c0.76,0,1.38,0.62,1.38,1.38   c0,4.5,3.67,8.17,8.17,8.17c4.5,0,8.17-3.66,8.17-8.17c0-4.51-3.66-8.17-8.17-8.17H68.03c-0.76,0-1.38-0.62-1.38-1.38   c0-0.76,0.62-1.38,1.38-1.38h43.57c6.03,0,10.93,4.9,10.93,10.93C122.52,128.31,117.62,133.21,111.59,133.21L111.59,133.21z    M111.59,133.21"></path>	</g></g></svg>