<svg xmlns="http://www.w3.org/2000/svg" xmlns:xlink="http://www.w3.org/1999/xlink" id="Layer_1" x="0px" y="0px" viewBox="0 0 200 200" xml:space="preserve"><g>	<path fill="#FFFFFF" d="M84.21,161.85h34.26v-22.36H84.21V161.85z M96.92,147.1l2.95,2.4l6.76-7.36l5.26,4.83l-11.31,12.31  l-8.16-6.65L96.92,147.1z"></path>	<path fill="#FFFFFF" d="M118.46,80.02H84.21v22.84h34.26V80.02z M100.57,99.81l-8.16-6.65l4.51-5.53l2.95,2.4l6.76-7.36l5.25,4.83  L100.57,99.81z"></path>	<rect x="125.59" y="139.49" fill="#FFFFFF" width="30.92" height="22.36"></rect>	<path fill="#FFFFFF" d="M84.21,132.35h34.26v-22.36H84.21V132.35z M96.92,117.13l2.95,2.4l6.76-7.36l5.26,4.83l-11.31,12.3  l-8.16-6.65L96.92,117.13z"></path>	<path fill="#FFFFFF" d="M47.1,161.85h29.97v-22.36H47.1V161.85z M57.2,147.1l2.95,2.4l6.76-7.36l5.25,4.83l-11.31,12.31l-8.16-6.65  L57.2,147.1z"></path>	<path fill="#FFFFFF" d="M77.07,80.02H47.1v22.84h29.97V80.02z M60.85,99.81l-8.16-6.65l4.51-5.53l2.95,2.4l6.76-7.36l5.25,4.83  L60.85,99.81z"></path>	<path fill="#FFFFFF" d="M47.1,132.35h29.97v-22.36H47.1V132.35z M57.2,117.13l2.95,2.4l6.76-7.36l5.25,4.83l-11.31,12.3l-8.16-6.65  L57.2,117.13z"></path>	<path fill="#FFFFFF" d="M125.59,102.85h30.92V80.02h-30.92V102.85z M135.93,87.64l2.95,2.4l6.77-7.36l5.25,4.83l-11.32,12.31  l-8.16-6.65L135.93,87.64z"></path>	<path fill="#FFFFFF" d="M156.52,109.99h-30.92v22.36h30.92V109.99z M139.58,129.31l-8.16-6.65l4.51-5.53l2.95,2.4l6.77-7.36  l5.25,4.83L139.58,129.31z"></path>	<path fill="#FFFFFF" d="M66.12,57.18c2.1,0,3.81-1.71,3.81-3.81V40.05c0-2.1-1.71-3.81-3.81-3.81c-2.1,0-3.8,1.71-3.8,3.81v13.32  C62.32,55.47,64.03,57.18,66.12,57.18z"></path>	<path fill="#FFFFFF" d="M101.81,57.18c2.1,0,3.81-1.71,3.81-3.81V40.05c0-2.1-1.71-3.81-3.81-3.81c-2.1,0-3.8,1.71-3.8,3.81v13.32  C98,55.47,99.71,57.18,101.81,57.18z"></path>	<path fill="#FFFFFF" d="M137.49,57.18c2.1,0,3.8-1.71,3.8-3.81V40.05c0-2.1-1.71-3.81-3.8-3.81c-2.1,0-3.81,1.71-3.81,3.81v13.32  C133.68,55.47,135.39,57.18,137.49,57.18z"></path>	<path fill="#15CACE" d="M156.52,52.42h-7.61v0.95c0,6.3-5.12,11.42-11.42,11.42c-6.3,0-11.42-5.12-11.42-11.42v-0.95h-12.85v0.95  c0,6.3-5.12,11.42-11.42,11.42c-6.29,0-11.42-5.12-11.42-11.42v-0.95H77.54v0.95c0,6.3-5.12,11.42-11.42,11.42  c-6.3,0-11.42-5.12-11.42-11.42v-0.95H47.1v19.98h109.42V52.42z"></path>	<path fill="#727272" d="M160.48,44.81h-11.58v-4.76c0-6.3-5.12-11.42-11.42-11.42c-6.3,0-11.42,5.12-11.42,11.42v4.76h-12.85v-4.76  c0-6.3-5.12-11.42-11.42-11.42c-6.29,0-11.42,5.12-11.42,11.42v4.76H77.54v-4.76c0-6.3-5.12-11.42-11.42-11.42  c-6.3,0-11.42,5.12-11.42,11.42v4.76H43.45c-2.1,0-3.97,1.7-3.97,3.81v27.59v89.44c0,2.1,1.86,3.81,3.97,3.81h117.04  c2.1,0,3.65-1.7,3.65-3.81V76.21V48.62C164.13,46.51,162.58,44.81,160.48,44.81z M77.07,109.99v22.36H47.1v-22.36H77.07z   M47.1,102.85V80.02h29.97v22.84H47.1z M77.07,139.49v22.36H47.1v-22.36H77.07z M118.46,109.99v22.36H84.21v-22.36H118.46z   M84.21,102.85V80.02h34.26v22.84H84.21z M118.46,139.49v22.36H84.21v-22.36H118.46z M156.52,139.49v22.36h-30.92v-22.36H156.52z   M125.59,132.35v-22.36h30.92v22.36H125.59z M156.52,102.85h-30.92V80.02h30.92V102.85z M133.68,40.05c0-2.1,1.71-3.81,3.81-3.81  c2.1,0,3.8,1.71,3.8,3.81v13.32c0,2.1-1.71,3.81-3.8,3.81c-2.1,0-3.81-1.71-3.81-3.81V40.05z M98,40.05c0-2.1,1.71-3.81,3.8-3.81  c2.1,0,3.81,1.71,3.81,3.81v13.32c0,2.1-1.71,3.81-3.81,3.81c-2.1,0-3.8-1.71-3.8-3.81V40.05z M62.32,40.05  c0-2.1,1.71-3.81,3.8-3.81c2.1,0,3.81,1.71,3.81,3.81v13.32c0,2.1-1.71,3.81-3.81,3.81c-2.1,0-3.8-1.71-3.8-3.81V40.05z   M47.1,52.42h7.61v0.95c0,6.3,5.12,11.42,11.42,11.42c6.3,0,11.42-5.12,11.42-11.42v-0.95h12.85v0.95c0,6.3,5.12,11.42,11.42,11.42  c6.3,0,11.42-5.12,11.42-11.42v-0.95h12.85v0.95c0,6.3,5.12,11.42,11.42,11.42c6.3,0,11.42-5.12,11.42-11.42v-0.95h7.61v19.98H47.1  V52.42z"></path>	<polygon fill="#D6D6D6" points="60.15,90.03 57.2,87.64 52.69,93.17 60.85,99.81 72.16,87.5 66.91,82.68  "></polygon>	<polygon fill="#D6D6D6" points="99.87,90.03 96.92,87.64 92.42,93.17 100.57,99.81 111.89,87.5 106.63,82.68  "></polygon>	<polygon fill="#3D3D3D" points="150.9,87.5 145.65,82.68 138.88,90.03 135.93,87.64 131.43,93.17 139.58,99.81  "></polygon>	<polygon fill="#D6D6D6" points="72.16,117 66.91,112.17 60.15,119.53 57.2,117.13 52.69,122.66 60.85,129.31  "></polygon>	<polygon fill="#D6D6D6" points="111.89,117 106.63,112.17 99.87,119.53 96.92,117.13 92.42,122.66 100.57,129.31  "></polygon>	<polygon fill="#3D3D3D" points="138.88,119.53 135.93,117.13 131.43,122.66 139.58,129.31 150.9,117 145.65,112.17  "></polygon>	<polygon fill="#D6D6D6" points="72.16,146.97 66.91,142.14 60.15,149.5 57.2,147.1 52.69,152.64 60.85,159.28  "></polygon>	<polygon fill="#3D3D3D" points="111.89,146.97 106.63,142.14 99.87,149.5 96.92,147.1 92.42,152.64 100.57,159.28  "></polygon></g></svg>