<svg xmlns="http://www.w3.org/2000/svg" xmlns:xlink="http://www.w3.org/1999/xlink" id="Layer_1" x="0px" y="0px" viewBox="0 0 200 200" xml:space="preserve"><g>	<path fill="#344B5E" d="M100.43,99.17c9.21,0,16.71-7.5,16.71-16.71c0-9.21-7.5-16.71-16.71-16.71s-16.71,7.5-16.71,16.71  C83.72,91.67,91.21,99.17,100.43,99.17z M100.43,70.52c6.58,0,11.94,5.36,11.94,11.94c0,6.58-5.35,11.94-11.94,11.94  c-6.58,0-11.94-5.35-11.94-11.94C88.49,75.88,93.85,70.52,100.43,70.52z"></path>	<path fill="#344B5E" d="M100,167.81l36.62-52.89c13.74-18.31,11.75-48.41-4.25-64.41c-8.65-8.65-20.14-13.41-32.37-13.41  c-12.23,0-23.72,4.76-32.37,13.41c-16,16-17.99,46.1-4.31,64.34L100,167.81z"></path></g><circle fill="#FFFFFF" cx="100" cy="82.46" r="18.83"></circle></svg>