<svg xmlns="http://www.w3.org/2000/svg" xmlns:xlink="http://www.w3.org/1999/xlink" id="Layer_1" x="0px" y="0px" viewBox="0 0 200 200" xml:space="preserve"><g>	<path fill="#537283" d="M165.12,112.42h-2.08c0,0,1.13,4.86-0.55,7.49l-56.88-33.1c0,0-11.26,2.34-12.33,2.34  c0,0-2.66,0.53-3.19,3.19c0,0-4.46,16.47-15.2,9.25l4.04-12.65c0,0,0.53-4.57,2.98-6.06l20.09-12.75c0,0,1.38-0.96,4.25-0.96  c0,0,31.24,4.25,32.52,6.48c0,0,0.64,3.4,13.18-1.38L165.12,112.42z"></path>	<path fill="#537283" d="M51.06,131.2c0,0-10.83-2.54-9.07-12.19c0,0,4.68-10.83,13.66-9.37c0,0,7.32,2.44,8.1,9.85  c0,0,5.07-0.88,8.88,3.41c0,0,4,4,3.02,6.83c0,0,5.66-0.39,8.59,3.41c0,0,3.71,3.22,3.22,6.63c0,0,7.51,0.59,9.95,5.46  c0,0,3.8,5.37-0.39,10.15c-4.2,4.78-7.41,8.78-14.15,5.56c0,0-6.05-3.61-5.56-8.68c0,0-5.66,2.63-9.95-1.85  c-4.29-4.49-2.93-7.41-2.93-7.41s-4.98,3.9-11.41-2.34C53.01,140.67,49.2,137.45,51.06,131.2z"></path>	<polygon fill="#B5DCB4" points="51.78,69.17 88.41,78.75 83.26,82.02 50.03,74.64 39.4,104.93 46.95,108.94 42.56,112.89   37.43,110.35 33.77,121.03 17.83,116.57 19.26,110.83 30.74,114.01 46.36,67.95 18.46,55.67 20.38,50.57 53.12,63.8  "></polygon>	<path fill="#B5DCB4" d="M115.69,92.68l-2.86,3.64l45.27,27.74c0,0,3.35,3.35,1.91,6.22c-1.43,2.87-4.3,3.19-5.9,2.55  c-1.59-0.64-20.24-10.2-20.24-10.2s-4.3,0.48-3.19,4.62l10.52,6.7c0,0,3.83,3.67,1.12,6.85c-2.71,3.19-5.72,1.91-5.72,1.91  l-15.64-8.29c0,0-4.14,0.48-2.87,4.14l7.49,5.58c0,0,3.03,3.03,0.64,6.06s-5.26,1.91-5.26,1.91l-10.2-5.42c0,0-3.67,0.8-3.03,4.46  c0.64,3.67-0.07,1.16-0.07,1.16s3.1,4.1-1.36,6.49c-4.46,2.39-6.75-1.54-6.75-1.54l-3.77,4.08c0,0,7.33,7.02,15.3,0.8  c0,0,3.03-3.51,3.51-6.7c0,0,8.45,5.74,14.51-0.32c0,0,4.78-4.94,2.55-9.25c0,0,7.68,6.7,14.84-1.12c0,0,3.65-3.98,1.34-8.85  c0,0,11.4,7.25,17.3-3.43c0,0,2.55-7.65-2.63-12.59L115.69,92.68z"></path>	<path fill="#537283" d="M181.32,51.21c-0.8,0.48-34.23,11.96-34.17,14.03c0.06,2.07,19.51,55.79,19.51,55.79l17.69-7.01  c0,0-0.96-4.3-1.43-4.3s-14.03,5.58-14.03,5.58l-15.94-47.66l30.45-11.8L181.32,51.21z"></path></g></svg>